<svg width="318" height="329" viewBox="0 0 318 329" fill="none" xmlns="http://www.w3.org/2000/svg">
<rect width="317.441" height="328.925" rx="24" fill="url(#paint0_linear_205_1951)" fill-opacity="0.8"/>
<path d="M168.797 237.227C173.884 233.467 178.754 229.368 183.383 225.005C192.013 216.88 202.235 206.466 208.72 194.629C214.072 184.841 216.868 174.113 214.096 162.927C211.444 152.199 202.982 142.773 192.592 141.471C180.61 139.928 166.628 151.38 158.72 161.071C150.813 151.38 136.831 139.928 124.825 141.447C114.434 142.773 105.973 152.175 103.321 162.903C100.548 174.089 103.345 184.841 108.697 194.605C115.182 206.442 125.403 216.88 134.034 224.981C138.687 229.344 143.557 233.418 148.619 237.203L162.65 245.979L219.713 265.458C237.239 271.436 255.441 258.394 255.441 239.879V148.607C255.441 140.7 251.993 133.202 245.991 128.067L176.271 68.4729C166.17 59.8424 151.271 59.8424 141.17 68.4729L71.4744 128.067C65.4715 133.202 62 140.7 62 148.607V239.879C62 258.394 80.2014 271.412 97.7277 265.458L154.743 246.027L168.797 237.227Z" stroke="white" stroke-width="8.69999" stroke-miterlimit="10" stroke-linecap="round" stroke-linejoin="round"/>
<defs>
<linearGradient id="paint0_linear_205_1951" x1="-23.003" y1="226.136" x2="318.557" y2="219.163" gradientUnits="userSpaceOnUse">
<stop stop-color="#A1C4FD"/>
<stop offset="1" stop-color="#2B8DBB"/>
</linearGradient>
</defs>
</svg>
