<svg width="62" height="62" viewBox="0 0 62 62" fill="none" xmlns="http://www.w3.org/2000/svg">
<rect width="62" height="62" rx="12" fill="url(#paint0_linear_19_4586)"/>
<path d="M45.4901 28.3751L31.9901 16.3751C31.7163 16.1346 31.3644 16.002 31.0001 16.002C30.6357 16.002 30.2838 16.1346 30.0101 16.3751L16.5101 28.3751C16.2806 28.578 16.1188 28.8464 16.0464 29.144C15.974 29.4417 15.9945 29.7544 16.1051 30.0401C16.2138 30.322 16.4052 30.5644 16.6541 30.7357C16.903 30.907 17.1979 30.9992 17.5001 31.0001H19.0001V44.5001C19.0001 44.8979 19.1581 45.2794 19.4394 45.5607C19.7207 45.842 20.1022 46.0001 20.5001 46.0001H41.5001C41.8979 46.0001 42.2794 45.842 42.5607 45.5607C42.842 45.2794 43.0001 44.8979 43.0001 44.5001V31.0001H44.5001C44.8022 30.9992 45.0971 30.907 45.346 30.7357C45.5949 30.5644 45.7863 30.322 45.8951 30.0401C46.0056 29.7544 46.0261 29.4417 45.9537 29.144C45.8813 28.8464 45.7195 28.578 45.4901 28.3751ZM32.5001 43.0001H29.5001V38.5001C29.5001 38.1022 29.6581 37.7207 29.9394 37.4394C30.2207 37.1581 30.6022 37.0001 31.0001 37.0001C31.3979 37.0001 31.7794 37.1581 32.0607 37.4394C32.342 37.7207 32.5001 38.1022 32.5001 38.5001V43.0001ZM40.0001 43.0001H35.5001V38.5001C35.5001 37.3066 35.026 36.162 34.182 35.3181C33.3381 34.4742 32.1935 34.0001 31.0001 34.0001C29.8066 34.0001 28.662 34.4742 27.8181 35.3181C26.9742 36.162 26.5001 37.3066 26.5001 38.5001V43.0001H22.0001V31.0001H40.0001V43.0001ZM21.4451 28.0001L31.0001 19.5101L40.5551 28.0001H21.4451Z" fill="#1B1F3B" fill-opacity="0.8"/>
<defs>
<linearGradient id="paint0_linear_19_4586" x1="-4.49275" y1="42.625" x2="62.216" y2="41.214" gradientUnits="userSpaceOnUse">
<stop stop-color="#A1C4FD"/>
<stop offset="1" stop-color="#2B8DBB"/>
</linearGradient>
</defs>
</svg>
