<svg width="62" height="62" viewBox="0 0 62 62" fill="none" xmlns="http://www.w3.org/2000/svg">
<rect width="62" height="62" rx="12" fill="url(#paint0_linear_19_4621)"/>
<path d="M41.5 22.75H37V21.25C37 20.0565 36.5259 18.9119 35.682 18.068C34.8381 17.2241 33.6935 16.75 32.5 16.75H29.5C28.3065 16.75 27.1619 17.2241 26.318 18.068C25.4741 18.9119 25 20.0565 25 21.25V22.75H20.5C19.3065 22.75 18.1619 23.2241 17.318 24.068C16.4741 24.9119 16 26.0565 16 27.25V40.75C16 41.9435 16.4741 43.0881 17.318 43.932C18.1619 44.7759 19.3065 45.25 20.5 45.25H41.5C42.6935 45.25 43.8381 44.7759 44.682 43.932C45.5259 43.0881 46 41.9435 46 40.75V27.25C46 26.0565 45.5259 24.9119 44.682 24.068C43.8381 23.2241 42.6935 22.75 41.5 22.75ZM28 21.25C28 20.8522 28.158 20.4706 28.4393 20.1893C28.7206 19.908 29.1022 19.75 29.5 19.75H32.5C32.8978 19.75 33.2794 19.908 33.5607 20.1893C33.842 20.4706 34 20.8522 34 21.25V22.75H28V21.25ZM43 40.75C43 41.1478 42.842 41.5294 42.5607 41.8107C42.2794 42.092 41.8978 42.25 41.5 42.25H20.5C20.1022 42.25 19.7206 42.092 19.4393 41.8107C19.158 41.5294 19 41.1478 19 40.75V32.5C20.4632 33.0804 21.9673 33.5516 23.5 33.91V34.795C23.5 35.1928 23.658 35.5744 23.9393 35.8557C24.2206 36.137 24.6022 36.295 25 36.295C25.3978 36.295 25.7794 36.137 26.0607 35.8557C26.342 35.5744 26.5 35.1928 26.5 34.795V34.48C27.9915 34.6831 29.4947 34.7883 31 34.795C32.5053 34.7883 34.0085 34.6831 35.5 34.48V34.795C35.5 35.1928 35.658 35.5744 35.9393 35.8557C36.2206 36.137 36.6022 36.295 37 36.295C37.3978 36.295 37.7794 36.137 38.0607 35.8557C38.342 35.5744 38.5 35.1928 38.5 34.795V33.91C40.0327 33.5516 41.5368 33.0804 43 32.5V40.75ZM43 29.215C41.5411 29.8307 40.0366 30.3322 38.5 30.715V30.25C38.5 29.8522 38.342 29.4706 38.0607 29.1893C37.7794 28.908 37.3978 28.75 37 28.75C36.6022 28.75 36.2206 28.908 35.9393 29.1893C35.658 29.4706 35.5 29.8522 35.5 30.25V31.36C32.5169 31.8101 29.4831 31.8101 26.5 31.36V30.25C26.5 29.8522 26.342 29.4706 26.0607 29.1893C25.7794 28.908 25.3978 28.75 25 28.75C24.6022 28.75 24.2206 28.908 23.9393 29.1893C23.658 29.4706 23.5 29.8522 23.5 30.25V30.745C21.9634 30.3622 20.4589 29.8607 19 29.245V27.25C19 26.8522 19.158 26.4706 19.4393 26.1893C19.7206 25.908 20.1022 25.75 20.5 25.75H41.5C41.8978 25.75 42.2794 25.908 42.5607 26.1893C42.842 26.4706 43 26.8522 43 27.25V29.215Z" fill="#1B1F3B" fill-opacity="0.8"/>
<defs>
<linearGradient id="paint0_linear_19_4621" x1="0" y1="31" x2="62" y2="31" gradientUnits="userSpaceOnUse">
<stop stop-color="#2BC0E4"/>
<stop offset="1" stop-color="#EAECC6"/>
</linearGradient>
</defs>
</svg>
