<svg width="62" height="62" viewBox="0 0 62 62" fill="none" xmlns="http://www.w3.org/2000/svg">
<rect width="62" height="62" rx="12" fill="url(#paint0_linear_19_4618)"/>
<path d="M35.08 26.185L28.645 32.635L26.17 30.16C26.0355 30.003 25.8701 29.8754 25.684 29.7854C25.4979 29.6954 25.2952 29.6448 25.0886 29.6368C24.882 29.6288 24.676 29.6636 24.4835 29.739C24.291 29.8145 24.1162 29.9288 23.97 30.075C23.8238 30.2212 23.7095 30.396 23.6341 30.5885C23.5586 30.781 23.5238 30.987 23.5318 31.1936C23.5398 31.4002 23.5904 31.6029 23.6804 31.789C23.7705 31.9751 23.898 32.1405 24.055 32.275L27.58 35.815C27.7202 35.954 27.8864 36.064 28.0691 36.1387C28.2519 36.2133 28.4476 36.2511 28.645 36.25C29.0385 36.2483 29.4156 36.0921 29.695 35.815L37.195 28.315C37.3356 28.1756 37.4472 28.0097 37.5233 27.8269C37.5995 27.6441 37.6387 27.448 37.6387 27.25C37.6387 27.052 37.5995 26.8559 37.5233 26.6731C37.4472 26.4903 37.3356 26.3244 37.195 26.185C36.914 25.9056 36.5338 25.7488 36.1375 25.7488C35.7412 25.7488 35.3611 25.9056 35.08 26.185ZM31 16C28.0333 16 25.1332 16.8797 22.6665 18.528C20.1997 20.1762 18.2771 22.5189 17.1418 25.2597C16.0065 28.0006 15.7094 31.0166 16.2882 33.9264C16.867 36.8361 18.2956 39.5088 20.3934 41.6066C22.4912 43.7044 25.1639 45.133 28.0737 45.7118C30.9834 46.2906 33.9994 45.9935 36.7403 44.8582C39.4812 43.7229 41.8238 41.8003 43.472 39.3336C45.1203 36.8668 46 33.9667 46 31C46 29.0302 45.612 27.0796 44.8582 25.2597C44.1044 23.4399 42.9995 21.7863 41.6066 20.3934C40.2137 19.0005 38.5601 17.8956 36.7403 17.1418C34.9204 16.388 32.9698 16 31 16ZM31 43C28.6266 43 26.3066 42.2962 24.3332 40.9776C22.3598 39.6591 20.8217 37.7849 19.9135 35.5922C19.0052 33.3995 18.7676 30.9867 19.2306 28.6589C19.6936 26.3311 20.8365 24.1929 22.5147 22.5147C24.193 20.8365 26.3312 19.6936 28.6589 19.2306C30.9867 18.7676 33.3995 19.0052 35.5922 19.9134C37.7849 20.8217 39.6591 22.3598 40.9776 24.3332C42.2962 26.3065 43 28.6266 43 31C43 34.1826 41.7357 37.2348 39.4853 39.4853C37.2349 41.7357 34.1826 43 31 43Z" fill="#1B1F3B" fill-opacity="0.8"/>
<defs>
<linearGradient id="paint0_linear_19_4618" x1="-4.49275" y1="42.625" x2="62.216" y2="41.214" gradientUnits="userSpaceOnUse">
<stop stop-color="#A1C4FD"/>
<stop offset="1" stop-color="#2B8DBB"/>
</linearGradient>
</defs>
</svg>
