<svg width="62" height="62" viewBox="0 0 62 62" fill="none" xmlns="http://www.w3.org/2000/svg">
<rect width="62" height="62" rx="12" fill="url(#paint0_linear_19_4620)"/>
<path d="M24.6367 29.1367C25.5267 29.1367 26.3967 28.8728 27.1367 28.3783C27.8768 27.8838 28.4535 27.181 28.7941 26.3588C29.1347 25.5365 29.2238 24.6317 29.0502 23.7588C28.8766 22.8859 28.448 22.084 27.8187 21.4547C27.1893 20.8254 26.3875 20.3968 25.5146 20.2231C24.6417 20.0495 23.7369 20.1386 22.9146 20.4792C22.0923 20.8198 21.3895 21.3966 20.8951 22.1366C20.4006 22.8766 20.1367 23.7467 20.1367 24.6367C20.138 25.8298 20.6125 26.9736 21.4561 27.8172C22.2998 28.6608 23.4436 29.1354 24.6367 29.1367ZM24.6367 23.1367C24.9333 23.1367 25.2234 23.2246 25.47 23.3895C25.7167 23.5543 25.909 23.7886 26.0225 24.0627C26.136 24.3367 26.1657 24.6383 26.1079 24.9293C26.05 25.2203 25.9071 25.4876 25.6973 25.6973C25.4876 25.9071 25.2203 26.05 24.9293 26.1079C24.6383 26.1657 24.3367 26.136 24.0627 26.0225C23.7886 25.909 23.5543 25.7167 23.3895 25.47C23.2247 25.2234 23.1367 24.9333 23.1367 24.6367C23.1369 24.2389 23.2951 23.8576 23.5763 23.5763C23.8576 23.2951 24.2389 23.1369 24.6367 23.1367ZM37.3632 32.8632C36.4732 32.8632 35.6032 33.1272 34.8632 33.6216C34.1232 34.1161 33.5464 34.8189 33.2058 35.6412C32.8652 36.4634 32.7761 37.3682 32.9497 38.2412C33.1233 39.1141 33.5519 39.9159 34.1813 40.5452C34.8106 41.1746 35.6124 41.6031 36.4853 41.7768C37.3583 41.9504 38.2631 41.8613 39.0853 41.5207C39.9076 41.1801 40.6104 40.6033 41.1049 39.8633C41.5993 39.1233 41.8632 38.2533 41.8632 37.3632C41.8619 36.1702 41.3874 35.0263 40.5438 34.1827C39.7002 33.3391 38.5563 32.8645 37.3632 32.8632ZM37.3632 38.8632C37.0666 38.8632 36.7766 38.7753 36.5299 38.6105C36.2832 38.4456 36.091 38.2114 35.9774 37.9373C35.8639 37.6632 35.8342 37.3616 35.8921 37.0706C35.9499 36.7796 36.0928 36.5124 36.3026 36.3026C36.5124 36.0928 36.7796 35.9499 37.0706 35.8921C37.3616 35.8342 37.6632 35.8639 37.9373 35.9774C38.2114 36.091 38.4456 36.2832 38.6105 36.5299C38.7753 36.7766 38.8632 37.0666 38.8632 37.3632C38.863 37.761 38.7049 38.1424 38.4236 38.4236C38.1424 38.7049 37.761 38.863 37.3632 38.8632ZM42.5605 19.4395C42.4212 19.3001 42.2559 19.1896 42.0739 19.1142C41.8919 19.0388 41.6969 19 41.4999 19C41.3029 19 41.1079 19.0388 40.9259 19.1142C40.7439 19.1896 40.5786 19.3001 40.4394 19.4395L19.4394 40.4395C19.2987 40.5784 19.1868 40.7438 19.1103 40.9262C19.0338 41.1085 18.994 41.3042 18.9934 41.5019C18.9928 41.6997 19.0313 41.8956 19.1067 42.0784C19.1821 42.2613 19.2929 42.4274 19.4327 42.5672C19.5726 42.707 19.7387 42.8178 19.9215 42.8932C20.1043 42.9686 20.3002 43.0071 20.498 43.0065C20.6957 43.0058 20.8914 42.9661 21.0738 42.8896C21.2561 42.813 21.4215 42.7012 21.5605 42.5605L42.5605 21.5605C42.6998 21.4212 42.8103 21.2559 42.8857 21.0739C42.9611 20.892 42.9999 20.6969 42.9999 20.5C42.9999 20.303 42.9611 20.108 42.8857 19.926C42.8103 19.744 42.6998 19.5787 42.5605 19.4395Z" fill="#1B1F3B" fill-opacity="0.8"/>
<defs>
<linearGradient id="paint0_linear_19_4620" x1="0" y1="31" x2="62" y2="31" gradientUnits="userSpaceOnUse">
<stop stop-color="#9796F0"/>
<stop offset="1" stop-color="#FBC7D4"/>
</linearGradient>
</defs>
</svg>
