<svg width="62" height="62" viewBox="0 0 62 62" fill="none" xmlns="http://www.w3.org/2000/svg">
<rect width="62" height="62" rx="12" fill="url(#paint0_linear_19_4616)"/>
<path d="M44.5 26.5C44.8978 26.5 45.2794 26.342 45.5607 26.0607C45.842 25.7794 46 25.3978 46 25C46 24.6022 45.842 24.2206 45.5607 23.9393C45.2794 23.658 44.8978 23.5 44.5 23.5H43V20.5H44.5C44.8978 20.5 45.2794 20.342 45.5607 20.0607C45.842 19.7794 46 19.3978 46 19C46 18.6022 45.842 18.2206 45.5607 17.9393C45.2794 17.658 44.8978 17.5 44.5 17.5H17.5C17.1022 17.5 16.7206 17.658 16.4393 17.9393C16.158 18.2206 16 18.6022 16 19C16 19.3978 16.158 19.7794 16.4393 20.0607C16.7206 20.342 17.1022 20.5 17.5 20.5H22V23.5H17.5C17.1022 23.5 16.7206 23.658 16.4393 23.9393C16.158 24.2206 16 24.6022 16 25C16 25.3978 16.158 25.7794 16.4393 26.0607C16.7206 26.342 17.1022 26.5 17.5 26.5H19V29.5H17.5C17.1022 29.5 16.7206 29.658 16.4393 29.9393C16.158 30.2206 16 30.6022 16 31C16 31.3978 16.158 31.7794 16.4393 32.0607C16.7206 32.342 17.1022 32.5 17.5 32.5H22V35.5H17.5C17.1022 35.5 16.7206 35.658 16.4393 35.9393C16.158 36.2206 16 36.6022 16 37C16 37.3978 16.158 37.7794 16.4393 38.0607C16.7206 38.342 17.1022 38.5 17.5 38.5H19V41.5H17.5C17.1022 41.5 16.7206 41.658 16.4393 41.9393C16.158 42.2206 16 42.6022 16 43C16 43.3978 16.158 43.7794 16.4393 44.0607C16.7206 44.342 17.1022 44.5 17.5 44.5H44.5C44.8978 44.5 45.2794 44.342 45.5607 44.0607C45.842 43.7794 46 43.3978 46 43C46 42.6022 45.842 42.2206 45.5607 41.9393C45.2794 41.658 44.8978 41.5 44.5 41.5H40V38.5H44.5C44.8978 38.5 45.2794 38.342 45.5607 38.0607C45.842 37.7794 46 37.3978 46 37C46 36.6022 45.842 36.2206 45.5607 35.9393C45.2794 35.658 44.8978 35.5 44.5 35.5H43V32.5H44.5C44.8978 32.5 45.2794 32.342 45.5607 32.0607C45.842 31.7794 46 31.3978 46 31C46 30.6022 45.842 30.2206 45.5607 29.9393C45.2794 29.658 44.8978 29.5 44.5 29.5H40V26.5H44.5ZM25 20.5H31V23.5H25V20.5ZM37 26.5V29.5H31V26.5H37ZM22 26.5H28V29.5H22V26.5ZM31 32.5V35.5H25V32.5H31ZM28 41.5H22V38.5H28V41.5ZM37 41.5H31V38.5H37V41.5ZM40 35.5H34V32.5H40V35.5ZM34 23.5V20.5H40V23.5H34Z" fill="#1B1F3B" fill-opacity="0.8"/>
<defs>
<linearGradient id="paint0_linear_19_4616" x1="-4.49275" y1="42.625" x2="62.216" y2="41.214" gradientUnits="userSpaceOnUse">
<stop stop-color="#A1C4FD"/>
<stop offset="1" stop-color="#2B8DBB"/>
</linearGradient>
</defs>
</svg>
