<svg width="62" height="62" viewBox="0 0 62 62" fill="none" xmlns="http://www.w3.org/2000/svg">
<rect width="62" height="62" rx="12" fill="url(#paint0_linear_19_4619)"/>
<path d="M35.215 31.42C36.1645 30.4004 36.6993 29.0632 36.715 27.67C36.715 26.1662 36.1176 24.724 35.0543 23.6607C33.991 22.5974 32.5488 22 31.045 22C29.5412 22 28.099 22.5974 27.0357 23.6607C25.9724 24.724 25.375 26.1662 25.375 27.67C25.3907 29.0632 25.9255 30.4004 26.875 31.42C25.553 32.0783 24.4153 33.0549 23.5644 34.262C22.7134 35.469 22.1758 36.8687 22 38.335C21.9562 38.7328 22.0723 39.1317 22.3227 39.444C22.573 39.7562 22.9372 39.9562 23.335 40C23.7328 40.0438 24.1317 39.9277 24.444 39.6773C24.7562 39.427 24.9562 39.0628 25 38.665C25.179 37.2117 25.8833 35.874 26.9801 34.904C28.077 33.9339 29.4907 33.3985 30.955 33.3985C32.4193 33.3985 33.833 33.9339 34.9299 34.904C36.0267 35.874 36.731 37.2117 36.91 38.665C36.9517 39.0496 37.1404 39.4033 37.4367 39.652C37.733 39.9008 38.114 40.0255 38.5 40H38.665C39.0582 39.9548 39.4176 39.7559 39.6648 39.4469C39.9121 39.1378 40.0272 38.7435 39.985 38.35C39.8222 36.8914 39.3016 35.4955 38.4694 34.2866C37.6373 33.0776 36.5193 32.0929 35.215 31.42ZM31 30.34C30.4719 30.34 29.9557 30.1834 29.5166 29.89C29.0775 29.5966 28.7353 29.1796 28.5332 28.6918C28.3312 28.2039 28.2783 27.667 28.3813 27.1491C28.4843 26.6312 28.7386 26.1554 29.112 25.782C29.4854 25.4086 29.9612 25.1543 30.4791 25.0513C30.997 24.9483 31.5339 25.0012 32.0218 25.2032C32.5096 25.4053 32.9266 25.7475 33.22 26.1866C33.5134 26.6257 33.67 27.1419 33.67 27.67C33.67 28.3781 33.3887 29.0573 32.888 29.558C32.3873 30.0587 31.7081 30.34 31 30.34ZM41.5 16H20.5C19.3065 16 18.1619 16.4741 17.318 17.318C16.4741 18.1619 16 19.3065 16 20.5V41.5C16 42.6935 16.4741 43.8381 17.318 44.682C18.1619 45.5259 19.3065 46 20.5 46H41.5C42.6935 46 43.8381 45.5259 44.682 44.682C45.5259 43.8381 46 42.6935 46 41.5V20.5C46 19.3065 45.5259 18.1619 44.682 17.318C43.8381 16.4741 42.6935 16 41.5 16ZM43 41.5C43 41.8978 42.842 42.2794 42.5607 42.5607C42.2794 42.842 41.8978 43 41.5 43H20.5C20.1022 43 19.7206 42.842 19.4393 42.5607C19.158 42.2794 19 41.8978 19 41.5V20.5C19 20.1022 19.158 19.7206 19.4393 19.4393C19.7206 19.158 20.1022 19 20.5 19H41.5C41.8978 19 42.2794 19.158 42.5607 19.4393C42.842 19.7206 43 20.1022 43 20.5V41.5Z" fill="#1B1F3B" fill-opacity="0.8"/>
<defs>
<linearGradient id="paint0_linear_19_4619" x1="0" y1="31" x2="62" y2="31" gradientUnits="userSpaceOnUse">
<stop stop-color="#2BC0E4"/>
<stop offset="1" stop-color="#EAECC6"/>
</linearGradient>
</defs>
</svg>
