<svg width="62" height="62" viewBox="0 0 62 62" fill="none" xmlns="http://www.w3.org/2000/svg">
<rect width="62" height="62" rx="12" fill="url(#paint0_linear_19_4613)"/>
<path d="M34 25H35.5C35.8978 25 36.2794 24.842 36.5607 24.5607C36.842 24.2794 37 23.8978 37 23.5C37 23.1022 36.842 22.7206 36.5607 22.4393C36.2794 22.158 35.8978 22 35.5 22H34C33.6022 22 33.2206 22.158 32.9393 22.4393C32.658 22.7206 32.5 23.1022 32.5 23.5C32.5 23.8978 32.658 24.2794 32.9393 24.5607C33.2206 24.842 33.6022 25 34 25ZM34 31H35.5C35.8978 31 36.2794 30.842 36.5607 30.5607C36.842 30.2794 37 29.8978 37 29.5C37 29.1022 36.842 28.7206 36.5607 28.4393C36.2794 28.158 35.8978 28 35.5 28H34C33.6022 28 33.2206 28.158 32.9393 28.4393C32.658 28.7206 32.5 29.1022 32.5 29.5C32.5 29.8978 32.658 30.2794 32.9393 30.5607C33.2206 30.842 33.6022 31 34 31ZM26.5 25H28C28.3978 25 28.7794 24.842 29.0607 24.5607C29.342 24.2794 29.5 23.8978 29.5 23.5C29.5 23.1022 29.342 22.7206 29.0607 22.4393C28.7794 22.158 28.3978 22 28 22H26.5C26.1022 22 25.7206 22.158 25.4393 22.4393C25.158 22.7206 25 23.1022 25 23.5C25 23.8978 25.158 24.2794 25.4393 24.5607C25.7206 24.842 26.1022 25 26.5 25ZM26.5 31H28C28.3978 31 28.7794 30.842 29.0607 30.5607C29.342 30.2794 29.5 29.8978 29.5 29.5C29.5 29.1022 29.342 28.7206 29.0607 28.4393C28.7794 28.158 28.3978 28 28 28H26.5C26.1022 28 25.7206 28.158 25.4393 28.4393C25.158 28.7206 25 29.1022 25 29.5C25 29.8978 25.158 30.2794 25.4393 30.5607C25.7206 30.842 26.1022 31 26.5 31ZM44.5 43H43V17.5C43 17.1022 42.842 16.7206 42.5607 16.4393C42.2794 16.158 41.8978 16 41.5 16H20.5C20.1022 16 19.7206 16.158 19.4393 16.4393C19.158 16.7206 19 17.1022 19 17.5V43H17.5C17.1022 43 16.7206 43.158 16.4393 43.4393C16.158 43.7206 16 44.1022 16 44.5C16 44.8978 16.158 45.2794 16.4393 45.5607C16.7206 45.842 17.1022 46 17.5 46H44.5C44.8978 46 45.2794 45.842 45.5607 45.5607C45.842 45.2794 46 44.8978 46 44.5C46 44.1022 45.842 43.7206 45.5607 43.4393C45.2794 43.158 44.8978 43 44.5 43ZM32.5 43H29.5V37H32.5V43ZM40 43H35.5V35.5C35.5 35.1022 35.342 34.7206 35.0607 34.4393C34.7794 34.158 34.3978 34 34 34H28C27.6022 34 27.2206 34.158 26.9393 34.4393C26.658 34.7206 26.5 35.1022 26.5 35.5V43H22V19H40V43Z" fill="#1B1F3B" fill-opacity="0.8"/>
<defs>
<linearGradient id="paint0_linear_19_4613" x1="0" y1="31" x2="62" y2="31" gradientUnits="userSpaceOnUse">
<stop stop-color="#2BC0E4"/>
<stop offset="1" stop-color="#EAECC6"/>
</linearGradient>
</defs>
</svg>
