<svg xmlns="http://www.w3.org/2000/svg" xml:space="preserve" width="450" height="165" style="shape-rendering:geometricPrecision;text-rendering:geometricPrecision;image-rendering:optimizeQuality;fill-rule:evenodd;clip-rule:evenodd" viewBox="0 0 97.43 35.72"><path d="M26.35 34.78h-.46c-.07.31-.29.53-.62.53-.19 0-.34-.07-.45-.19-.16-.16-.19-.35-.19-.95s.03-.78.19-.95c.11-.11.26-.18.45-.18.33 0 .54.21.61.52h.47c-.11-.6-.53-.93-1.08-.93-.34 0-.59.11-.79.3-.29.3-.31.61-.31 1.24 0 .64.02.94.31 1.24.2.19.45.31.79.31.55 0 .97-.34 1.08-.94zm2.6-1.71v-.42h-2.14v.42h.84v2.62h.46v-2.62h.84zm2.85.5c0-.52-.38-.92-.97-.92h-1.15v3.04h.46v-1.2h.69c.59 0 .97-.39.97-.92zm-.46 0c0 .32-.21.51-.54.51h-.66v-1.01h.66c.33 0 .54.18.54.5zm3.29.6c0-.63 0-.94-.3-1.24-.2-.19-.45-.3-.79-.3-.33 0-.59.11-.78.3-.3.3-.31.61-.31 1.24 0 .64.01.94.31 1.24.19.19.45.31.78.31.34 0 .59-.12.79-.31.3-.3.3-.6.3-1.24zm-.46 0c0 .6-.02.79-.18.94-.11.12-.26.2-.45.2-.18 0-.33-.08-.45-.2-.15-.16-.18-.34-.18-.94 0-.6.03-.78.18-.95.12-.11.27-.18.45-.18.19 0 .34.07.45.18.16.16.18.35.18.95zm3.59 1.52v-3.04h-.42l-1.36 2.2v-2.2h-.46v3.04h.42l1.36-2.21v2.21h.46zm2.86-2.62v-.42h-2.13v.42h.84v2.62h.46v-2.62h.83zm2.68 2.62v-.41h-1.49v-.92h1.26v-.41h-1.26v-.88h1.49v-.42h-1.95v3.04h1.95zm2.93 0v-3.04h-1.78v1.31c0 1.1-.24 1.32-.58 1.32h-.08v.41h.19c.61 0 .92-.39.92-1.66v-.96h.87v2.62h.46zm3.13-.92c0-.55-.38-.92-.96-.92h-.7v-1.2h-.47v3.04h1.17c.57 0 .96-.38.96-.92zm-.46 0c0 .31-.2.51-.54.51h-.66v-1.02h.66c.34 0 .54.2.54.51zm3.38.92v-3.04h-.47v1.3h-1.23v-1.3h-.46v3.04h.46v-1.33h1.23v1.33h.47zm3.22 0-1.11-3.04h-.37l-1.11 3.04h.48l.22-.61h1.19l.22.61h.48zm-.82-1h-.94l.48-1.35.46 1.35zm2.38-.19h.61v1.19h.46v-3.04h-1.16c-.57 0-.96.36-.96.92 0 .41.22.72.58.84l-.66 1.28h.55l.58-1.19zm.61-.42H57c-.33 0-.53-.2-.53-.51 0-.32.2-.51.53-.51h.67v1.02zm3.77 1.61v-3.04h-.46v3.04h.46zm1.81 0-1.27-1.6 1.16-1.44h-.56l-1.14 1.45 1.23 1.59h.58zm2.62-1.52c0-.63-.01-.94-.31-1.24-.2-.19-.45-.3-.79-.3-.33 0-.58.11-.78.3-.3.3-.31.61-.31 1.24 0 .64.01.94.31 1.24.2.19.45.31.78.31.34 0 .59-.12.79-.31.3-.3.31-.6.31-1.24zm-.47 0c0 .6-.02.79-.17.94-.12.12-.27.2-.46.2-.18 0-.33-.08-.45-.2-.15-.16-.18-.34-.18-.94 0-.6.03-.78.18-.95.12-.11.27-.18.45-.18.19 0 .34.07.46.18.15.16.17.35.17.95zm4.01 1.52v-3.04h-.46l-.88 1.89-.88-1.89h-.46v3.04h.46v-2.03l.71 1.48h.34l.7-1.48v2.03h.47zm3.14 0v-3.04H70.4v3.04h.46v-2.62h1.23v2.62h.46zm3.23 0-1.11-3.04h-.37l-1.11 3.04h.48l.22-.61h1.19l.22.61h.48zm-.82-1h-.94l.48-1.35.46 1.35zm3.59 1v-3.04h-.46v1.3h-1.23v-1.3h-.46v3.04h.46v-1.33h1.23v1.33h.46zm3.23 0v-3.04h-.42l-1.35 2.2v-2.2h-.47v3.04h.42l1.36-2.21v2.21h.46zm1.93-1.19h.6v1.19h.46v-3.04h-1.15c-.58 0-.97.36-.97.92 0 .41.23.72.58.84l-.66 1.28h.55l.59-1.19zm.6-.42h-.66c-.34 0-.54-.2-.54-.51 0-.32.2-.51.54-.51h.66v1.02z" style="fill:#2b2a29;fill-rule:nonzero"/><path d="M77.51 21.97s-.79.22-1.62.22c-1.09 0-1.15-.62-1.15-1.18 0-.86.34-1.03 1.38-1.03.51 0 .97.06 1.39.16v1.83zM93 16.78c.82 0 1.61.32 1.61.73v3.34c0 .17-.1.44-.25.5-.27.13-.73.29-1.28.27-1.34-.03-1.59-.69-1.67-2.43-.07-1.62.26-2.43 1.59-2.43v.02zm4.43-6.02h-2.82v4.27s-1.28-.49-2.19-.49c-2.32 0-3.85.93-3.85 4.7 0 1.55.27 2.62.72 3.41.44.74 1.58 1.49 3.28 1.45.89-.02 1.69-.22 2.04-.35v.36h2.79V10.74l.03.02zm-39.66 3.78c-3.42-.49-6.14.52-6.14.52h-.01v9.05h2.95v-6.86l.01-.01s.68-.37 1.83-.21c.3.03.7.37.82.63.16.32.21.81.21 1.53v4.92h2.93v-5.33c0-2.39-.62-3.96-2.59-4.24h-.01zM28.1 12.87l4.42 11.26h-8.34l-2.16-7.41-9.77 6.19L0 30.67 17.14 0h5.9l.08.19 3.5 8.91-6.2 2.16-.97-3.37-2.8 5.81 4.09-1.4 6.28-2.18 11.92-4.11-10.84 6.86zm51.37-5.8c-.85 0-1.31.37-1.48 1.04l-.02.06c-.14.55-.02.8.52.99l.46.16c.16.05.19.13.16.25l-.04.1c-.04.16-.17.25-.55.25-.2 0-.57-.06-.85-.13l-.22.81c.31.06.72.12.96.12.9 0 1.37-.36 1.55-1.04l.03-.12c.14-.55.01-.82-.51-1l-.42-.15c-.19-.05-.22-.13-.19-.26l.01-.08c.05-.15.16-.25.43-.25.21 0 .55.05.85.1l.22-.79c-.31-.05-.63-.1-.9-.1l-.01.04zm4.16.86.21-.79h-2.79l-.21.79h.95l-.71 2.7h.88l.71-2.7h.96zm2.08 1.49 1.67-2.28h-.96l-.93 1.52-.14-1.52h-.98l.48 2.28-.32 1.19h.88l.32-1.19h-.02zm2.49.41.71-2.7h-.88l-.91 3.48h2.19l.2-.78H88.2zm4.7-1.91.21-.79h-2.19L90 10.61h2.2l.2-.78h-1.31l.16-.59h1.2l.2-.77h-1.2l.15-.55h1.3zm-17.44.56-.22.6H43.75l.22-.6h31.49zm13 5.95-.98 2.54-.33-.05c-.14 0-.29-.01-.41-.01-.88 0-1.83.28-1.83.88v6.31h-2.95v-9.59h2.95v.66c.54-.5 1.04-.85 2.21-.91.58-.03 1.08.08 1.34.15v.02zm-41.21 7.54s-.79.22-1.63.22c-1.08 0-1.15-.62-1.15-1.18 0-.86.35-1.03 1.39-1.03.51 0 .96.06 1.39.16v1.83zm-1.39-7.7c-.87 0-1.86.08-2.81.25h-.03l-.9 2.34-.09.3.11-.03c.8-.21 2.06-.46 3.04-.46 1.77 0 2.05.33 2.07 1.53-.74-.14-1.44-.22-2.07-.22-2.35 0-3.72.5-3.72 3.12 0 1.53.36 2.34 1.29 2.78 1.11.52 3.77.11 4.48-.13v.36h2.79v-6.15c0-2.66-1.16-3.7-4.17-3.7l.01.01zm-14.93.29 3.24-.02h.05l2.12 5.32 2-5.29.01-.03 3.3.02-3.64 9.52-.02.03h-3.33l-3.73-9.55zm36.74 2.31v4.28c0 .35-.61.6-1.43.6-1.3 0-1.64-.52-1.64-2.45 0-2.43.47-2.66 1.72-2.66.37 0 .93.06 1.37.23h-.02zm-1.37-2.58c-3.41 0-4.67 1.37-4.67 5.08 0 3.47 1.11 4.87 3.83 4.87 1 0 1.79-.28 2.21-.49-.03 1.12-.72 1.58-2.35 1.58-.87 0-1.78-.13-2.85-.43l-.07-.01-.52 2.31.05.02c.92.33 2.3.55 3.44.55 2.73 0 5.24-.55 5.24-4.54v-8.26l-.05-.02c-1.04-.39-2.79-.66-4.28-.66h.02zm14 3.64v-.01c0-.11 0-.24-.01-.35-.13-2.51-1.44-3.31-4.1-3.31-1.39 0-2.95.22-4.02.5l-.02 2.3c.79-.23 2.21-.41 3.28-.41 1.45 0 1.89.18 2.04.92.01.08.03.17.03.28v.02c0 .09.01.2.01.33-.74-.14-1.43-.22-2.06-.22-2.35 0-3.73.5-3.73 3.12 0 1.53.37 2.35 1.3 2.78 1.1.52 3.77.11 4.48-.13v.36h2.79V17.93h.01z" style="fill:#00417d;fill-rule:nonzero"/></svg>